# xmcd
#
# Track frame offsets: 
#        150
#        10910
#        20512
#        31990
#        42337
#        52362
#        61655
#        72250
#        82350
#        94722
#        105205
#        115807
#        125725
#        137957
#        148120
#        160045
#        172177
#        180952
#        190017
#        198545
#
# Disc length: 2773 seconds
#
# Revision: 1
# Processed by: cddbd v1.5.1PL0 Copyright (c) Steve Scherf et al.
# Submitted via: ExactAudioCopy v0.95a5
#
DISCID=1d0ad314
DTITLE=Bob Gallion - Out Of A Honky Tonk
DYEAR=2000
DGENRE=Honky Tonk
TTITLE0=Hey, Mr. Bartender (1956)
TTITLE1=Don't Feel Lonesome (1959)
TTITLE2=Trademark On What I've Found (1956)
TTITLE3=You Don't Love Me (1959)
TTITLE4=My Square Dancin' Mama (She's Done Learned To Rock 'n' Roll) (
TTITLE4=1956)
TTITLE5=That's What I Tell My Heart (1958)
TTITLE6=Baby, Love Me (1958)
TTITLE7=No One Will Ever Know (1958)
TTITLE8=Out Of A Honky Tonk (1957)
TTITLE9=Foolish Young Heart (1958)
TTITLE10=Your Wild Life's Gonna Get You Down (1956)
TTITLE11=A Fool In Love (1956)
TTITLE12=You've Gotta Have A Heartbreak (To Know How To Love) (1956)
TTITLE13=I Want Her Blues (1957)
TTITLE14=I Miss You (1958)
TTITLE15=You Take The Table And I'll Take The Chairs (1959)
TTITLE16=Run Boy (1958)
TTITLE17=This Should Go On Forever (1959)
TTITLE18=Froggy Went A'Courtin' (1959)
TTITLE19=Hey Joe (1959)
EXTD=
EXTT0=
EXTT1=
EXTT2=
EXTT3=
EXTT4=
EXTT5=
EXTT6=
EXTT7=
EXTT8=
EXTT9=
EXTT10=
EXTT11=
EXTT12=
EXTT13=
EXTT14=
EXTT15=
EXTT16=
EXTT17=
EXTT18=
EXTT19=
PLAYORDER=
